<svg width="212" height="212" viewBox="0 0 212 212" fill="none" xmlns="http://www.w3.org/2000/svg">
<path d="M93.1585 4.09037C100.851 -1.36345 111.149 -1.36346 118.842 4.09037L124.284 7.94926C128.616 11.0201 133.904 12.4372 139.191 11.9434L145.834 11.3229C155.222 10.446 164.141 15.5951 168.076 24.1644L170.86 30.2277C173.076 35.0529 176.947 38.9243 181.772 41.1399L187.836 43.9241C196.405 47.859 201.554 56.7775 200.677 66.1662L200.057 72.8093C199.563 78.0958 200.98 83.3843 204.051 87.7157L207.91 93.1585C213.363 100.851 213.363 111.149 207.91 118.842L204.051 124.284C200.98 128.616 199.563 133.904 200.057 139.191L200.677 145.834C201.554 155.222 196.405 164.141 187.836 168.076L181.772 170.86C176.947 173.076 173.076 176.947 170.86 181.772L168.076 187.836C164.141 196.405 155.222 201.554 145.834 200.677L139.191 200.057C133.904 199.563 128.616 200.98 124.284 204.051L118.842 207.91C111.149 213.363 100.851 213.363 93.1585 207.91L87.7157 204.051C83.3843 200.98 78.0958 199.563 72.8093 200.057L66.1663 200.677C56.7775 201.554 47.859 196.405 43.9241 187.836L41.1399 181.772C38.9243 176.947 35.0529 173.076 30.2277 170.86L24.1644 168.076C15.5951 164.141 10.446 155.222 11.3229 145.834L11.9434 139.191C12.4372 133.904 11.0201 128.616 7.94926 124.284L4.09037 118.842C-1.36345 111.149 -1.36346 100.851 4.09037 93.1585L7.94926 87.7157C11.0201 83.3843 12.4372 78.0958 11.9434 72.8093L11.3229 66.1663C10.446 56.7775 15.5951 47.859 24.1644 43.9241L30.2277 41.1399C35.0529 38.9243 38.9243 35.0529 41.1399 30.2277L43.9241 24.1644C47.859 15.5951 56.7775 10.446 66.1663 11.3229L72.8093 11.9434C78.0958 12.4372 83.3843 11.0201 87.7157 7.94926L93.1585 4.09037Z" fill="url(#paint0_linear_6254_1209)"/>
<defs>
<linearGradient id="paint0_linear_6254_1209" x1="41.2128" y1="97.3183" x2="123.114" y2="97.3183" gradientUnits="userSpaceOnUse">
<stop stop-color="#38AB00"/>
<stop offset="1" stop-color="#3CA17A"/>
</linearGradient>
</defs>
</svg>
